<?xml version="1.0" encoding="utf-8"?>
<!-- Generator: Adobe Illustrator 16.0.3, SVG Export Plug-In . SVG Version: 6.00 Build 0)  -->
<!DOCTYPE svg PUBLIC "-//W3C//DTD SVG 1.1//EN" "http://www.w3.org/Graphics/SVG/1.1/DTD/svg11.dtd">
<svg version="1.1" xmlns="http://www.w3.org/2000/svg" xmlns:xlink="http://www.w3.org/1999/xlink" x="0px" y="0px" width="60px"
	 height="60px" viewBox="0 0 60 60" enable-background="new 0 0 60 60" xml:space="preserve">
<g id="icon_map">
	<path fill="#272727" d="M30.637,13.345c-4.579,0-8.292,3.712-8.292,8.292c0,4.58,3.713,8.292,8.292,8.292
		c4.578,0,8.291-3.712,8.291-8.292C38.928,17.057,35.215,13.345,30.637,13.345z M30.637,27.88c-3.448,0-6.243-2.795-6.243-6.244
		c0-3.448,2.795-6.243,6.243-6.243c3.447,0,6.243,2.795,6.243,6.243C36.88,25.084,34.084,27.88,30.637,27.88z"/>
	<path fill="#272727" d="M30.637,7C22.555,7,16,13.553,16,21.636C16,35,30.637,53,30.637,53s14.636-17.917,14.636-31.364
		C45.272,13.553,38.718,7,30.637,7z M30.637,49.501c0,0-12.632-16.544-12.632-28.133c0-6.795,5.656-12.302,12.632-12.302
		c6.975,0,12.63,5.506,12.63,12.302C43.267,33.82,30.637,49.501,30.637,49.501z"/>
</g>
<g id="icon_time">
</g>
<g id="icon_hand">
</g>
<g id="Layer_7">
</g>
<g id="Layer_8" display="none">
</g>
<g id="Layer_9">
</g>
<g id="Layer_11">
</g>
</svg>
