<?xml version="1.0" encoding="utf-8"?>
<!-- Generator: Adobe Illustrator 16.0.3, SVG Export Plug-In . SVG Version: 6.00 Build 0)  -->
<!DOCTYPE svg PUBLIC "-//W3C//DTD SVG 1.1//EN" "http://www.w3.org/Graphics/SVG/1.1/DTD/svg11.dtd">
<svg version="1.1" xmlns="http://www.w3.org/2000/svg" xmlns:xlink="http://www.w3.org/1999/xlink" x="0px" y="0px" width="60px"
	 height="60px" viewBox="0 0 60 60" enable-background="new 0 0 60 60" xml:space="preserve">
<g id="icon_map">
</g>
<g id="icon_time">
</g>
<g id="icon_hand">
	<polygon fill="#272727" points="10,42 7,42 7,27 12,27 	"/>
	<path fill="#272727" d="M24,18c-4,0-10,9-10,9l-2,15h14l-8.544-9.246L25,25c0,0,8.035,1.718,8.75-0.292C34.417,22.833,28,18,24,18z
		 M24.875,23.292l-8.695,9.417L23.455,40H14l1.637-12.36c0,0,5.382-7.973,8.655-7.973s7.802,3.365,7.791,4.375
		C32.068,25.376,24.875,23.292,24.875,23.292z"/>
	<path fill="#272727" d="M37.359,11.342l-8.692,8.7l1.291,0.833l7.401-7.226l13.842,13.842L32.169,46.524L18.326,32.682l8.438-8.437
		c-0.809-0.01-1.575-0.051-2.209-0.099l-8.535,8.536l16.149,16.149l21.34-21.34L37.359,11.342z"/>
	
		<rect x="33.875" y="21.709" transform="matrix(0.7071 0.7071 -0.7071 0.7071 28.2486 -23.4043)" fill="#272727" width="17" height="1.375"/>
	
		<rect x="31.814" y="23.771" transform="matrix(0.7071 0.7071 -0.7071 0.7071 29.1032 -21.3424)" fill="#272727" width="17" height="1.375"/>
	
		<rect x="22.885" y="32.698" transform="matrix(0.7071 0.7071 -0.7071 0.7071 32.8006 -12.4139)" fill="#272727" width="17" height="1.375"/>
	
		<rect x="20.823" y="34.761" transform="matrix(0.7071 0.7071 -0.7071 0.7071 33.6552 -10.352)" fill="#272727" width="17" height="1.375"/>
	
		<rect x="18.72" y="36.865" transform="matrix(0.7071 0.7071 -0.7071 0.7071 34.5268 -8.2483)" fill="#272727" width="17" height="1.375"/>
</g>
<g id="Layer_7">
</g>
<g id="Layer_8" display="none">
</g>
<g id="Layer_9">
</g>
<g id="Layer_11">
</g>
</svg>
