<?xml version="1.0" encoding="utf-8"?>
<!-- Generator: Adobe Illustrator 16.0.3, SVG Export Plug-In . SVG Version: 6.00 Build 0)  -->
<!DOCTYPE svg PUBLIC "-//W3C//DTD SVG 1.1//EN" "http://www.w3.org/Graphics/SVG/1.1/DTD/svg11.dtd">
<svg version="1.1" xmlns="http://www.w3.org/2000/svg" xmlns:xlink="http://www.w3.org/1999/xlink" x="0px" y="0px" width="60px"
	 height="60px" viewBox="0 0 60 60" enable-background="new 0 0 60 60" xml:space="preserve">
<g id="icon_map">
</g>
<g id="icon_time">
</g>
<g id="icon_hand">
</g>
<g id="Layer_7">
	<path fill="#272727" d="M7,7.095V41h46V7.095H7z M50.951,39H9V9h41.951V39z"/>
	<g>
		<path fill="#272727" d="M51.091,40.839v2.903c0,4.036-1.841,7.307-7.363,7.307H16.272c-5.397,0-7.363-3.271-7.363-7.307v-2.903H7
			v0.218v3.932c0,4.402,3.595,7.97,8.029,7.97h29.941c4.435,0,8.029-3.568,8.029-7.97v-3.984v-0.166H51.091z"/>
	</g>
	<g>
		<path fill="#272727" d="M24.9,45.824c0,0.167-0.018,0.316-0.054,0.449s-0.092,0.246-0.168,0.34s-0.174,0.166-0.292,0.216
			s-0.261,0.075-0.426,0.075c-0.167,0-0.31-0.025-0.43-0.076s-0.218-0.123-0.294-0.217s-0.132-0.207-0.168-0.34
			s-0.054-0.282-0.054-0.447c0-0.168,0.019-0.319,0.055-0.453s0.093-0.249,0.169-0.343s0.174-0.167,0.293-0.217
			s0.262-0.075,0.429-0.075c0.165,0,0.308,0.025,0.426,0.075s0.216,0.123,0.292,0.217s0.132,0.208,0.168,0.343
			S24.9,45.656,24.9,45.824z M24.465,45.824c0-0.244-0.039-0.424-0.118-0.543s-0.207-0.178-0.386-0.178s-0.309,0.059-0.39,0.178
			s-0.122,0.299-0.122,0.543c0,0.237,0.04,0.416,0.12,0.535s0.211,0.18,0.392,0.18c0.176,0,0.304-0.06,0.384-0.18
			S24.465,46.061,24.465,45.824z"/>
		<path fill="#272727" d="M26.641,46.844l-0.6-0.885l-0.207,0.229v0.656h-0.42v-2.908h0.42v1.74l0.76-0.881h0.496l-0.793,0.881
			l0.836,1.168H26.641z"/>
		<path fill="#272727" d="M28.586,46.844c-0.059,0.018-0.125,0.033-0.198,0.044s-0.144,0.017-0.21,0.017
			c-0.112,0-0.207-0.013-0.286-0.04s-0.144-0.068-0.193-0.123s-0.087-0.126-0.11-0.212s-0.035-0.188-0.035-0.305v-1.088h-0.275
			v-0.342h0.275v-0.57h0.42v0.57h0.496v0.342h-0.496v1.023c0,0.073,0.004,0.134,0.013,0.185s0.022,0.091,0.042,0.122
			s0.045,0.054,0.077,0.068s0.07,0.021,0.116,0.021s0.094-0.005,0.145-0.017s0.095-0.024,0.133-0.04L28.586,46.844z"/>
		<path fill="#272727" d="M30.701,45.824c0,0.167-0.018,0.316-0.054,0.449s-0.092,0.246-0.168,0.34s-0.174,0.166-0.292,0.216
			s-0.261,0.075-0.426,0.075c-0.167,0-0.31-0.025-0.43-0.076s-0.218-0.123-0.294-0.217s-0.132-0.207-0.168-0.34
			s-0.054-0.282-0.054-0.447c0-0.168,0.019-0.319,0.055-0.453s0.093-0.249,0.169-0.343s0.174-0.167,0.293-0.217
			s0.262-0.075,0.429-0.075c0.165,0,0.308,0.025,0.426,0.075s0.216,0.123,0.292,0.217s0.132,0.208,0.168,0.343
			S30.701,45.656,30.701,45.824z M30.266,45.824c0-0.244-0.039-0.424-0.118-0.543s-0.207-0.178-0.386-0.178s-0.309,0.059-0.39,0.178
			s-0.122,0.299-0.122,0.543c0,0.237,0.04,0.416,0.12,0.535s0.211,0.18,0.392,0.18c0.176,0,0.304-0.06,0.384-0.18
			S30.266,46.061,30.266,45.824z"/>
		<path fill="#272727" d="M33.035,45.805c0,0.147-0.015,0.287-0.045,0.42s-0.077,0.25-0.143,0.351s-0.149,0.181-0.252,0.24
			s-0.228,0.089-0.373,0.089c-0.059,0-0.117-0.006-0.175-0.02s-0.113-0.031-0.167-0.053s-0.104-0.048-0.15-0.077
			s-0.089-0.06-0.125-0.091l-0.031,0.18h-0.359v-2.908h0.42v1.045c0.081-0.07,0.173-0.128,0.277-0.175s0.217-0.069,0.338-0.069
			c0.138,0,0.257,0.025,0.355,0.076s0.181,0.123,0.244,0.216s0.11,0.206,0.141,0.337S33.035,45.643,33.035,45.805z M32.602,45.813
			c0-0.234-0.036-0.411-0.109-0.528s-0.188-0.177-0.346-0.177c-0.046,0-0.092,0.006-0.139,0.019s-0.092,0.029-0.136,0.051
			s-0.086,0.046-0.126,0.074s-0.077,0.058-0.111,0.089v0.992c0.031,0.027,0.066,0.053,0.105,0.077s0.08,0.045,0.123,0.063
			s0.087,0.033,0.131,0.043s0.087,0.016,0.129,0.016c0.066,0,0.129-0.013,0.188-0.039s0.109-0.068,0.152-0.125
			s0.077-0.131,0.102-0.223S32.602,45.943,32.602,45.813z"/>
		<path fill="#272727" d="M33.875,45.908c0.001,0.103,0.012,0.194,0.032,0.272s0.052,0.145,0.095,0.197s0.099,0.093,0.167,0.12
			s0.152,0.041,0.253,0.041c0.094,0,0.177-0.016,0.249-0.048s0.139-0.086,0.2-0.163l0.322,0.219
			c-0.039,0.059-0.083,0.11-0.131,0.154s-0.104,0.082-0.168,0.111s-0.137,0.053-0.218,0.068s-0.174,0.023-0.278,0.023
			c-0.327,0-0.568-0.09-0.724-0.271s-0.233-0.446-0.233-0.798c0-0.166,0.017-0.315,0.05-0.45s0.087-0.25,0.16-0.347
			s0.17-0.171,0.288-0.224s0.264-0.079,0.436-0.079c0.152,0,0.282,0.023,0.39,0.068s0.195,0.11,0.263,0.193s0.117,0.184,0.148,0.301
			s0.047,0.247,0.047,0.389v0.221H33.875z M34.807,45.6c0-0.17-0.036-0.3-0.107-0.39s-0.185-0.134-0.338-0.134
			c-0.078,0-0.145,0.011-0.2,0.034s-0.102,0.056-0.139,0.101s-0.066,0.099-0.089,0.164s-0.039,0.14-0.051,0.225H34.807z"/>
		<path fill="#272727" d="M36.891,45.207c-0.021-0.008-0.048-0.015-0.081-0.021s-0.067-0.01-0.103-0.01
			c-0.058,0-0.111,0.008-0.162,0.023s-0.1,0.037-0.146,0.063s-0.091,0.058-0.134,0.095s-0.085,0.075-0.127,0.115v1.371h-0.42v-2.049
			h0.42v0.313c0.044-0.047,0.09-0.091,0.137-0.133s0.096-0.078,0.147-0.109s0.105-0.056,0.161-0.074s0.115-0.027,0.178-0.027
			c0.048,0,0.09,0.003,0.124,0.011s0.064,0.017,0.089,0.03L36.891,45.207z"/>
	</g>
	<g>
		<path fill="#272727" d="M27.979,30.405c0,2.001-0.568,3.517-1.706,4.545s-2.764,1.543-4.878,1.543c-0.51,0-1.033-0.057-1.572-0.17
			c-0.537-0.113-1.057-0.278-1.557-0.496c-0.501-0.217-0.959-0.486-1.374-0.807s-0.751-0.694-1.005-1.119l0.877-0.666
			c0.208,0.312,0.479,0.6,0.814,0.864s0.706,0.491,1.111,0.68c0.406,0.189,0.834,0.337,1.282,0.446
			c0.448,0.108,0.895,0.163,1.338,0.163c0.896,0,1.681-0.094,2.351-0.283s1.228-0.484,1.671-0.885
			c0.443-0.401,0.774-0.922,0.991-1.564s0.326-1.416,0.326-2.322c0-0.68-0.095-1.286-0.283-1.819
			c-0.189-0.534-0.496-0.982-0.921-1.346c-0.425-0.363-0.984-0.642-1.678-0.835c-0.694-0.194-1.551-0.291-2.57-0.291h-1.161v-1.09
			h0.935c0.793,0,1.518-0.087,2.174-0.262c0.656-0.175,1.22-0.435,1.692-0.779c0.472-0.344,0.84-0.774,1.104-1.288
			c0.265-0.515,0.396-1.112,0.396-1.792c0-1.237-0.384-2.155-1.153-2.754c-0.77-0.599-1.876-0.899-3.321-0.899
			c-1.151,0-2.123,0.229-2.916,0.687c-0.793,0.458-1.445,1.088-1.955,1.89l-0.948-0.609c0.255-0.406,0.562-0.795,0.921-1.168
			c0.358-0.373,0.778-0.701,1.26-0.984s1.026-0.507,1.636-0.673c0.608-0.165,1.296-0.248,2.06-0.248c1.02,0,1.891,0.121,2.613,0.361
			c0.722,0.241,1.312,0.571,1.77,0.991c0.458,0.42,0.796,0.911,1.013,1.473c0.217,0.562,0.325,1.168,0.325,1.82
			c0,0.642-0.087,1.213-0.262,1.713s-0.427,0.941-0.758,1.324c-0.33,0.382-0.731,0.71-1.203,0.984s-1.01,0.496-1.614,0.666
			c0.585,0.066,1.133,0.217,1.643,0.453s0.951,0.56,1.324,0.97c0.373,0.411,0.668,0.914,0.885,1.508S27.979,29.622,27.979,30.405z"
			/>
		<path fill="#272727" d="M39.632,36.083V19.148c-0.528,0.67-1.193,1.18-1.996,1.529s-1.704,0.524-2.705,0.524v-0.92
			c0.699-0.019,1.324-0.135,1.877-0.347c0.552-0.213,1.038-0.494,1.458-0.843s0.772-0.748,1.056-1.196
			c0.283-0.449,0.505-0.918,0.665-1.409h0.864v19.598H39.632z"/>
	</g>
	<circle fill="#272727" cx="19.75" cy="12.25" r="1.813"/>
	<circle fill="#272727" cx="39.188" cy="12.25" r="1.813"/>
</g>
<g id="Layer_8" display="none">
</g>
<g id="Layer_9">
</g>
<g id="Layer_11">
</g>
</svg>
