<?xml version="1.0" encoding="utf-8"?>
<!-- Generator: Adobe Illustrator 16.0.3, SVG Export Plug-In . SVG Version: 6.00 Build 0)  -->
<!DOCTYPE svg PUBLIC "-//W3C//DTD SVG 1.1//EN" "http://www.w3.org/Graphics/SVG/1.1/DTD/svg11.dtd">
<svg version="1.1" xmlns="http://www.w3.org/2000/svg" xmlns:xlink="http://www.w3.org/1999/xlink" x="0px" y="0px" width="60px"
	 height="60px" viewBox="0 0 60 60" enable-background="new 0 0 60 60" xml:space="preserve">
<g id="Layer_11">
</g>
<g id="Layer_3">
</g>
<g id="Layer_5">
</g>
<g id="Layer_7">
</g>
<g id="Layer_8">
</g>
<g id="Layer_9">
	<path fill="#272727" d="M50.155,13.656c-0.318-1.081-10.743-6.736-11.8-6.424c-1.056,0.311-3.035,5.576-3.035,5.576l0.005,0.003
		L20.579,39.896l0.295,12.554l0.788,0.429l10.706-6.564L47.114,19.23l0.006,0.003C47.12,19.233,50.475,14.737,50.155,13.656z
		 M25.248,49l-3.037-1.653l-0.248-6.697l8.795,4.789L25.248,49z M31.776,43.927l-8.897-4.844l13.013-23.898l8.896,4.844
		L31.776,43.927z M46.11,17.649l-8.764-4.771c0,0,0.74-2.893,1.734-3.187c0.996-0.293,8.488,3.84,8.764,4.771
		C48.119,15.395,46.11,17.649,46.11,17.649z"/>
	<rect x="7" y="52.11" fill="#272727" width="14.662" height="0.769"/>
</g>
</svg>
