<?xml version="1.0" encoding="utf-8"?>
<!-- Generator: Adobe Illustrator 16.0.0, SVG Export Plug-In . SVG Version: 6.00 Build 0)  -->
<!DOCTYPE svg PUBLIC "-//W3C//DTD SVG 1.1//EN" "http://www.w3.org/Graphics/SVG/1.1/DTD/svg11.dtd">
<svg version="1.1" xmlns="http://www.w3.org/2000/svg" xmlns:xlink="http://www.w3.org/1999/xlink" x="0px" y="0px" width="60px"
	 height="60px" viewBox="0 0 60 60" enable-background="new 0 0 60 60" xml:space="preserve">
<g id="Layer_11">
</g>
<g id="Layer_3">
</g>
<g id="Layer_5">
</g>
<g id="Layer_7">
</g>
<g id="Layer_8">
</g>
<g id="Layer_9">
</g>
<g id="Layer_12">
</g>
<g id="Layer_13">
</g>
<g id="Layer_14">
</g>
<g id="Layer_15">
	<g id="icon_map">
		<path fill="#272727" d="M30.637,7C22.556,7,16,13.553,16,21.636C16,35,30.637,53,30.637,53s14.637-17.917,14.637-31.364
			C45.271,13.553,38.718,7,30.637,7z M30.637,49.501c0,0-12.632-16.544-12.632-28.133c0-6.795,5.656-12.302,12.632-12.302
			c6.975,0,12.631,5.506,12.631,12.302C43.268,33.82,30.637,49.501,30.637,49.501z"/>
	</g>
	<g>
		<path fill="#272727" d="M30.63,15.948l1.417,2.629l0.463,0.857l0.96,0.165l2.82,0.484l-1.95,2.049l-0.667,0.7l0.135,0.958
			l0.42,2.988l-2.771-1.245l-0.816-0.367l-0.818,0.365l-2.838,1.267l0.406-3.02l0.123-0.921l-0.623-0.688l-2.009-2.216l2.976-0.505
			l0.959-0.162l0.464-0.854L30.63,15.948 M30.637,11.747l-3.114,5.729l-6.574,1.115l4.459,4.921l-0.883,6.575l6.112-2.73l6.075,2.73
			l-0.924-6.575l4.537-4.766l-6.518-1.118L30.637,11.747L30.637,11.747z"/>
	</g>
</g>
</svg>
