<?xml version="1.0" encoding="utf-8"?>
<!-- Generator: Adobe Illustrator 16.0.3, SVG Export Plug-In . SVG Version: 6.00 Build 0)  -->
<!DOCTYPE svg PUBLIC "-//W3C//DTD SVG 1.1//EN" "http://www.w3.org/Graphics/SVG/1.1/DTD/svg11.dtd">
<svg version="1.1" xmlns="http://www.w3.org/2000/svg" xmlns:xlink="http://www.w3.org/1999/xlink" x="0px" y="0px" width="60px"
	 height="60px" viewBox="0 0 60 60" enable-background="new 0 0 60 60" xml:space="preserve">
<g id="Layer_11">
</g>
<g id="Layer_3">
</g>
<g id="Layer_5">
</g>
<g id="Layer_7">
</g>
<g id="Layer_8">
</g>
<g id="Layer_9">
</g>
<g id="Layer_12">
</g>
<g id="Layer_13">
	<path fill="#3C589E" d="M46.068,7.268H14.005c-3.874,0-7.015,3.071-7.015,6.859v31.812c0,3.788,3.141,6.859,7.015,6.859h17.043
		v-17.67h-6.054l0.076-7.078l5.978-0.013c0,0-0.735-8.888,2.483-12.105c3.218-3.218,12.018-2.168,12.018-2.168
		s-0.138,6.369-0.002,6.414c0.135,0.045-4.828-0.677-6.46,0.587c-1.621,1.255-0.993,7.317-0.993,7.317h7.046l-0.768,7.046h-6.053
		v17.67h7.749c3.874,0,7.015-3.071,7.015-6.859V14.126C53.083,10.338,49.942,7.268,46.068,7.268z"/>
</g>
<g id="Layer_14">
</g>
<g id="Layer_15">
</g>
</svg>
