<?xml version="1.0" encoding="utf-8"?>
<!-- Generator: Adobe Illustrator 16.0.0, SVG Export Plug-In . SVG Version: 6.00 Build 0)  -->
<!DOCTYPE svg PUBLIC "-//W3C//DTD SVG 1.1//EN" "http://www.w3.org/Graphics/SVG/1.1/DTD/svg11.dtd">
<svg version="1.1" xmlns="http://www.w3.org/2000/svg" xmlns:xlink="http://www.w3.org/1999/xlink" x="0px" y="0px" width="60px"
	 height="60px" viewBox="0 0 60 60" enable-background="new 0 0 60 60" xml:space="preserve">
<g id="Layer_11">
</g>
<g id="Layer_3">
</g>
<g id="Layer_5">
</g>
<g id="Layer_7">
</g>
<g id="Layer_8">
	<g id="Layer_11_11_">
		<path fill="#272727" d="M29.896,7.053C17.248,7.053,6.99,17.308,6.99,29.958c0,12.651,10.258,22.906,22.906,22.906
			c12.647,0,22.904-10.255,22.904-22.906C52.802,17.308,42.545,7.053,29.896,7.053z M29.896,50.922
			c-11.578,0-20.964-9.386-20.964-20.963S18.318,8.996,29.896,8.996c11.576,0,20.964,9.386,20.964,20.963
			C50.862,41.536,41.473,50.922,29.896,50.922z"/>
	</g>
	<g>
		<path fill="#272727" d="M26.674,35.653v-5.291c1.91-0.797,3.287-1.453,4.131-1.969s1.471-1.061,1.881-1.635
			s0.615-1.236,0.615-1.986c0-1.793-1.154-2.689-3.463-2.689c-1.055,0-1.901,0.208-2.54,0.624s-1.222,1.058-1.749,1.925
			l-4.096-2.443c0.809-1.441,1.887-2.528,3.234-3.261s3.053-1.099,5.115-1.099c2.789,0,4.919,0.577,6.39,1.731
			s2.206,2.774,2.206,4.86c0,1.16-0.237,2.191-0.712,3.094s-1.146,1.723-2.013,2.461s-2.273,1.582-4.219,2.531v3.146H26.674z
			 M32,40.224c0,1.008-0.229,1.708-0.686,2.101s-1.189,0.589-2.197,0.589c-1.102,0-1.852-0.22-2.25-0.659s-0.598-1.116-0.598-2.03
			c0-0.961,0.211-1.652,0.633-2.074s1.16-0.633,2.215-0.633c1.078,0,1.828,0.211,2.25,0.633S32,39.263,32,40.224z"/>
	</g>
</g>
<g id="Layer_9">
</g>
<g id="Layer_12">
</g>
<g id="Layer_13">
</g>
<g id="Layer_14">
</g>
<g id="Layer_15">
</g>
</svg>
