<?xml version="1.0" encoding="utf-8"?>
<!-- Generator: Adobe Illustrator 16.0.0, SVG Export Plug-In . SVG Version: 6.00 Build 0)  -->
<!DOCTYPE svg PUBLIC "-//W3C//DTD SVG 1.1//EN" "http://www.w3.org/Graphics/SVG/1.1/DTD/svg11.dtd">
<svg version="1.1" xmlns="http://www.w3.org/2000/svg" xmlns:xlink="http://www.w3.org/1999/xlink" x="0px" y="0px" width="60px"
	 height="60px" viewBox="0 0 60 60" enable-background="new 0 0 60 60" xml:space="preserve">
<g id="Layer_11">
	<g>
		<path fill="#272727" d="M46.586,41.466l0.486-1.222l-0.931-0.93l-6.132-6.131l-1.129-1.13l-1.352,0.853
			c-0.301,0.189-2.56,1.643-4.116,3.447c-1.115-0.367-3.079-1.994-5.46-4.306l-1.414,1.414c3.262,3.174,5.555,4.89,7.728,5.093
			c1.181-1.97,4.329-3.956,4.329-3.956l6.132,6.131c0,0-1.856,4.673-6.214,4.325c-4.062-0.325-9.605-4.636-14.343-9.224
			l-1.413,1.413c6.374,6.188,11.616,9.486,15.596,9.804C44.119,47.507,46.488,41.713,46.586,41.466z"/>
		<path fill="#272727" d="M27.094,22.47l0.852-1.352l-1.129-1.129l-6.131-6.131l-0.931-0.931l-1.222,0.486
			c-0.248,0.098-6.041,2.467-5.58,8.232c0.317,3.979,3.616,9.222,9.804,15.596l1.413-1.413c-4.588-4.737-8.898-10.282-9.224-14.343
			c-0.349-4.358,4.325-6.214,4.325-6.214l6.131,6.131c0,0-1.986,3.149-3.957,4.329c0.203,2.172,1.919,4.466,5.094,7.728l1.413-1.414
			c-2.312-2.381-3.938-4.345-4.306-5.46C25.451,25.029,26.904,22.771,27.094,22.47z"/>
	</g>
</g>
<g id="Layer_3">
</g>
<g id="Layer_5">
</g>
<g id="Layer_7">
</g>
<g id="Layer_8">
</g>
<g id="Layer_9">
</g>
<g id="Layer_12">
</g>
<g id="Layer_13">
</g>
<g id="Layer_14">
</g>
<g id="Layer_15">
</g>
</svg>
