<?xml version="1.0" encoding="utf-8"?>
<!-- Generator: Adobe Illustrator 16.0.0, SVG Export Plug-In . SVG Version: 6.00 Build 0)  -->
<!DOCTYPE svg PUBLIC "-//W3C//DTD SVG 1.1//EN" "http://www.w3.org/Graphics/SVG/1.1/DTD/svg11.dtd">
<svg version="1.1" xmlns="http://www.w3.org/2000/svg" xmlns:xlink="http://www.w3.org/1999/xlink" x="0px" y="0px" width="60px"
	 height="60px" viewBox="0 0 60 60" enable-background="new 0 0 60 60" xml:space="preserve">
<g id="Layer_11">
	<path fill="#272727" d="M50.665,31.778L29.088,8.762l-7.367,7.858v-2.946h-6.733v10.129L7.51,31.778h7.294L14.76,48.313
		c-0.038,0.424-0.064,1.479,0.542,2.085c0.547,0.546,1.535,0.627,2.082,0.627h8.574V37.831h6.259v13.196h8.497
		c0.54,0,1.527-0.082,2.072-0.626c0.608-0.607,0.584-1.663,0.549-1.999l0.033-16.623H50.665z M41.471,29.876l-0.034,18.61
		c0.015,0.157,0.006,0.408-0.025,0.555c-0.162,0.046-0.459,0.084-0.697,0.084h-6.596V35.929H24.056v13.196h-6.68
		c-0.237,0-0.534-0.038-0.696-0.084c-0.03-0.142-0.041-0.394-0.023-0.639l0.053-18.526h-4.811l4.717-5.031l0.272-0.29v-2.78v-6.2
		h2.932l-0.007,5.859l9.275-9.893l17.188,18.335H41.471z"/>
</g>
<g id="Layer_3">
</g>
<g id="Layer_5">
</g>
<g id="Layer_7">
</g>
<g id="Layer_8">
</g>
<g id="Layer_9">
</g>
<g id="Layer_12">
</g>
<g id="Layer_13">
</g>
<g id="Layer_14">
</g>
<g id="Layer_15">
</g>
</svg>
